<svg xmlns="http://www.w3.org/2000/svg" xmlns:xlink="http://www.w3.org/1999/xlink" viewBox="0 0 120 95" fill="currentColor" class="dark-fill">
  <path
    d="M 7.003906 4.390625 L 0.0898438 8.4375 L 0.0898438 86.375 L 7.003906 90.421875 C 15.898438 95.675781 19.023438 95.859375 19.023438 91.144531 C 19.023438 88.910156 18.421875 88.425781 11.089844 84.257812 L 6.402344 81.601562 L 6.402344 13.210938 L 11.089844 10.554688 C 18.421875 6.382812 19.023438 5.902344 19.023438 3.667969 C 19.023438 -1.046875 15.898438 -0.863281 7.003906 4.390625 Z M 7.003906 4.390625 " />
  <path
    d="M 26.535156 7.59375 C 19.5625 11.640625 13.492188 15.265625 13.011719 15.75 C 12.230469 16.535156 12.109375 20.945312 11.929688 46.921875 C 11.75 80.632812 11.691406 80.027344 15.597656 80.027344 C 16.679688 80.027344 17.878906 79.726562 18.300781 79.304688 C 18.839844 78.761719 19.023438 71.328125 19.023438 49.519531 L 19.023438 20.523438 L 29.117188 14.660156 C 34.648438 11.460938 39.632812 8.621094 40.117188 8.4375 C 40.65625 8.257812 42.878906 9.164062 45.34375 10.554688 L 49.671875 13.089844 L 49.671875 45.53125 C 49.671875 76.222656 49.730469 78.097656 50.753906 79.003906 C 52.132812 80.269531 54.71875 80.332031 55.921875 79.0625 C 56.761719 78.214844 56.882812 74.230469 56.882812 43.839844 L 56.882812 9.527344 L 55.558594 8.316406 C 53.277344 6.203125 42.277344 0.28125 40.65625 0.28125 C 39.816406 0.28125 33.503906 3.546875 26.535156 7.59375 Z M 26.535156 7.59375 " />
  <path
    d="M 71.183594 3.785156 C 68 5.71875 64.875 7.773438 64.152344 8.378906 C 62.890625 9.527344 62.890625 9.707031 62.890625 47.40625 L 62.890625 85.285156 L 64.273438 86.492188 C 66.679688 88.730469 77.375 94.527344 78.996094 94.527344 C 80.019531 94.527344 85.847656 91.507812 93.839844 86.796875 C 109.164062 77.855469 108.203125 79.183594 107.84375 67.765625 C 107.601562 59.308594 108.023438 59.910156 98.527344 54.472656 C 88.734375 48.917969 88.132812 49.339844 88.132812 62.085938 C 88.132812 71.753906 88.492188 72.78125 91.679688 72.78125 C 94.203125 72.78125 94.984375 71.328125 95.34375 66.074219 L 95.644531 61.300781 L 98.226562 62.871094 L 100.753906 64.382812 L 100.753906 74.351562 L 90.054688 80.511719 C 84.164062 83.894531 79.175781 86.675781 78.996094 86.675781 C 78.757812 86.675781 76.714844 85.585938 74.371094 84.199219 L 70.101562 81.722656 L 70.101562 13.089844 L 75.089844 10.25 C 82.785156 5.78125 83.804688 4.511719 81.761719 1.613281 C 80.257812 -0.5625 77.734375 -0.0195312 71.183594 3.785156 Z M 71.183594 3.785156 " />
  <path
    d="M 90.117188 7.410156 C 83.445312 11.339844 77.433594 15.023438 76.773438 15.628906 C 75.511719 16.777344 75.511719 17.199219 75.511719 47.464844 C 75.511719 81.175781 75.390625 80.027344 79.117188 80.027344 C 82.722656 80.027344 82.722656 80.269531 82.722656 48.855469 L 82.722656 20.339844 L 93.238281 14.238281 C 99.007812 10.855469 103.878906 8.136719 104.117188 8.136719 C 104.296875 8.136719 106.523438 9.285156 108.925781 10.675781 L 113.371094 13.210938 L 113.371094 37.679688 L 107.542969 41.121094 C 104.296875 43.054688 101.472656 44.867188 101.234375 45.230469 C 99.789062 47.34375 101.59375 51.03125 104.117188 51.03125 C 105.257812 51.03125 116.976562 44.445312 118.960938 42.691406 C 119.921875 41.847656 119.984375 40.398438 119.863281 25.113281 L 119.683594 8.4375 L 112.773438 4.390625 C 108.265625 1.671875 105.257812 0.28125 104.058594 0.34375 C 102.855469 0.34375 98.046875 2.820312 90.117188 7.410156 Z M 90.117188 7.410156 " />
  <path
    d="M 32.542969 18.710938 C 28.9375 20.824219 25.574219 23.179688 25.210938 23.964844 C 24.730469 24.871094 24.429688 28.195312 24.429688 33.328125 C 24.429688 40.578125 24.550781 41.484375 25.632812 42.574219 C 27.136719 44.082031 29.359375 44.144531 30.621094 42.695312 C 31.460938 41.789062 31.640625 40.21875 31.640625 34.660156 L 31.640625 27.773438 L 34.046875 26.382812 C 35.308594 25.65625 36.511719 25.054688 36.691406 25.054688 C 36.929688 25.054688 37.050781 27.105469 37.050781 29.582031 C 37.050781 33.328125 37.289062 34.355469 38.253906 35.324219 C 39.695312 36.773438 41.136719 36.832031 42.941406 35.566406 C 44.203125 34.71875 44.261719 34.234375 44.261719 25.65625 C 44.261719 12.847656 43.359375 12.304688 32.542969 18.710938 Z M 32.542969 18.710938 " />
  <path
    d="M 95.644531 18.769531 C 92.039062 20.945312 88.851562 23 88.613281 23.421875 C 87.589844 24.929688 88.371094 27.710938 90.054688 28.617188 C 91.796875 29.644531 92.097656 29.523438 97.628906 26.261719 L 100.753906 24.449219 L 100.753906 30.429688 L 94.921875 33.871094 C 91.679688 35.804688 88.851562 37.617188 88.550781 37.980469 C 87.589844 39.429688 88.433594 42.210938 90.117188 43.175781 C 91.679688 44.023438 91.917969 43.960938 95.101562 42.269531 C 102.316406 38.34375 106.460938 35.566406 107.183594 34.113281 C 108.203125 32.058594 108.203125 18.648438 107.183594 16.59375 C 105.800781 13.816406 103.15625 14.296875 95.644531 18.769531 Z M 95.644531 18.769531 " />
  <path
    d="M 32.722656 47.769531 C 28.335938 50.367188 25.511719 52.359375 25.089844 53.265625 C 24.671875 54.234375 24.429688 61.121094 24.429688 73.261719 C 24.429688 94.105469 24.492188 94.527344 28.277344 94.527344 C 29.417969 94.527344 30.621094 94.167969 30.980469 93.742188 C 31.402344 93.199219 31.703125 86.976562 31.761719 74.832031 L 31.941406 56.769531 L 34.527344 55.378906 L 37.050781 53.992188 L 37.050781 69.636719 C 37.050781 84.015625 37.109375 85.347656 38.132812 86.25 C 39.695312 87.703125 42.878906 87.582031 43.660156 86.132812 C 44.023438 85.347656 44.261719 77.671875 44.261719 65.347656 C 44.261719 47.164062 44.203125 45.714844 43.179688 44.808594 C 42.578125 44.203125 41.558594 43.78125 40.898438 43.78125 C 40.296875 43.78125 36.628906 45.59375 32.722656 47.769531 Z M 32.722656 47.769531 " />
  <path
    d="M 114.332031 51.996094 C 113.492188 52.78125 113.371094 55.019531 113.371094 67.28125 L 113.371094 81.601562 L 108.746094 84.257812 C 101.351562 88.425781 100.753906 88.910156 100.753906 91.144531 C 100.753906 95.859375 103.878906 95.675781 112.773438 90.421875 L 119.683594 86.375 L 119.863281 69.457031 C 119.984375 54.113281 119.921875 52.480469 118.960938 51.753906 C 117.578125 50.726562 115.476562 50.847656 114.332031 51.996094 Z M 114.332031 51.996094 " />
</svg>