<svg width="68" height="69" viewBox="0 0 68 69" fill="none" xmlns="http://www.w3.org/2000/svg">
<path d="M66 45.8073C59.9614 48.2357 53.3422 48.8357 46.9654 47.5329C40.5885 46.2301 34.7351 43.0819 30.1329 38.4797C25.5306 33.8774 22.3824 28.024 21.0796 21.6472C19.7768 15.2703 20.3769 8.65117 22.8052 2.61255C15.6542 5.49293 9.72784 10.7711 6.04206 17.5423C2.35627 24.3134 1.14064 32.1558 2.60355 39.7251C4.06645 47.2943 8.11678 54.119 14.0602 59.0291C20.0036 63.9392 27.4699 66.629 35.1793 66.6373C41.8087 66.6376 48.2866 64.6539 53.7792 60.9418C59.2719 57.2296 63.528 51.9587 66 45.8073Z" stroke="#F8FAFC" stroke-width="4" stroke-linecap="round" stroke-linejoin="round"/>
</svg>
