<svg width="68" height="69" viewBox="0 0 68 69" fill="none" xmlns="http://www.w3.org/2000/svg">
<path d="M34 2.625V6.18056M34 63.0694V66.625M66 34.625H62.4444M5.55556 34.625H2M56.6276 57.2526L54.1138 54.7388M13.8862 14.5112L11.3724 11.9974M56.6276 11.9974L54.1138 14.5112M13.8862 54.7388L11.3724 57.2526M48.2222 34.625C48.2222 38.397 46.7238 42.0144 44.0566 44.6816C41.3894 47.3488 37.772 48.8472 34 48.8472C30.228 48.8472 26.6106 47.3488 23.9434 44.6816C21.2762 42.0144 19.7778 38.397 19.7778 34.625C19.7778 30.853 21.2762 27.2356 23.9434 24.5684C26.6106 21.9012 30.228 20.4028 34 20.4028C37.772 20.4028 41.3894 21.9012 44.0566 24.5684C46.7238 27.2356 48.2222 30.853 48.2222 34.625Z" stroke="#0F172A" stroke-width="4" stroke-linecap="round" stroke-linejoin="round"/>
</svg>
